<?xml version="1.0" encoding="utf-8"?>
<!-- Generator: Adobe Illustrator 16.0.0, SVG Export Plug-In . SVG Version: 6.00 Build 0)  -->
<!DOCTYPE svg PUBLIC "-//W3C//DTD SVG 1.1//EN" "http://www.w3.org/Graphics/SVG/1.1/DTD/svg11.dtd">
<svg version="1.1" id="Layer_1" xmlns="http://www.w3.org/2000/svg" xmlns:xlink="http://www.w3.org/1999/xlink" x="0px" y="0px"
	 width="400px" height="400px" viewBox="106 196 400 400" enable-background="new 106 196 400 400" xml:space="preserve">
<g>
	<path d="M441.119,442.588c-16.039,5.804-32.548,8.737-49.068,8.737c-79.705,0-144.547-64.843-144.547-144.545
		c0-16.521,2.945-33.031,8.749-49.07c2.12-5.867,0.664-12.42-3.748-16.821c-4.411-4.411-10.964-5.867-16.821-3.747
		c-69.778,25.237-116.664,91.941-116.664,166.001c0,97.413,79.253,176.667,176.666,176.667c74.062,0,140.766-46.887,166.003-116.665
		c2.12-5.856,0.662-12.407-3.75-16.809C453.541,441.923,446.977,440.435,441.119,442.588z M295.686,547.688
		c-79.703,0-144.545-64.844-144.545-144.546c0-49.455,25.568-94.906,66.042-121.172c-1.199,8.234-1.799,16.522-1.799,24.809
		c0,97.413,79.253,176.667,176.667,176.667c8.297,0,16.574-0.602,24.806-1.799C390.604,522.109,345.142,547.688,295.686,547.688z"/>
	<path d="M501.11,313.246c-2.334-7.001-9.914-10.824-16.937-8.458l-14.498,4.831v-13.546c0-7.387-5.996-13.383-13.385-13.383
		c-7.387,0-13.381,5.996-13.381,13.383v13.556l-14.501-4.83c-7.022-2.366-14.593,1.457-16.938,8.459
		c-2.333,7.014,1.456,14.593,8.47,16.928l15.506,5.171l-11.694,17.55c-4.101,6.146-2.441,14.465,3.716,18.556
		c2.281,1.53,4.86,2.248,7.408,2.248c4.325,0,8.566-2.088,11.146-5.965l10.277-15.417l10.28,15.417
		c2.581,3.866,6.821,5.965,11.146,5.965c2.549,0,5.129-0.729,7.41-2.248c6.146-4.102,7.805-12.41,3.717-18.556l-11.694-17.55
		l15.504-5.16C499.654,327.851,503.446,320.271,501.11,313.246z"/>
	<path d="M338.516,320.164c3.532,0,6.958-1.392,9.42-3.962c2.569-2.462,3.963-5.889,3.963-9.422s-1.394-6.96-3.963-9.54
		c-4.923-4.926-13.812-4.926-18.843,0.116c-2.57,2.453-3.962,5.89-3.962,9.423s1.392,6.949,3.962,9.422
		C331.555,318.772,334.98,320.164,338.516,320.164z"/>
	<path d="M424.173,234.507c3.531,0,6.957-1.392,9.419-3.962c2.57-2.462,3.962-5.889,3.962-9.422s-1.392-6.959-3.962-9.54
		c-4.925-4.925-13.81-4.925-18.95,0.118c-2.463,2.452-3.855,5.889-3.855,9.422s1.393,6.949,3.963,9.422
		C417.211,233.116,420.637,234.507,424.173,234.507z"/>
</g>
<text transform="matrix(1 0 0 1 0 717.3008)" font-family="'HelveticaNeue-Bold'" font-size="30.6">Created by Slavko Janjic</text>
<text transform="matrix(1 0 0 1 0 747.8984)" font-family="'HelveticaNeue-Bold'" font-size="30.6">from the Noun Project</text>
</svg>
