<?xml version="1.0" encoding="utf-8"?>
<!-- Generator: Adobe Illustrator 16.0.0, SVG Export Plug-In . SVG Version: 6.00 Build 0)  -->
<!DOCTYPE svg PUBLIC "-//W3C//DTD SVG 1.1//EN" "http://www.w3.org/Graphics/SVG/1.1/DTD/svg11.dtd">
<svg version="1.1" id="Layer_1" xmlns="http://www.w3.org/2000/svg" xmlns:xlink="http://www.w3.org/1999/xlink" x="0px" y="0px"
	 width="500px" height="500px" viewBox="56 55.79 500 500" enable-background="new 56 55.79 500 500" xml:space="preserve">
<path d="M405.065,244.335c0-15.705-6.04-30.805-17.518-42.282l-47.113-47.718v-32.618h11.476c6.646,0,12.083-5.436,12.083-12.081
	V77.624c0-6.645-5.437-12.081-12.083-12.081H248.623c-6.644,0-12.081,5.436-12.081,12.081v31.409
	c0,6.645,5.437,12.081,12.081,12.081h11.476v32.618l-47.114,47.718c-10.873,11.476-17.517,26.577-17.517,42.282v276.644
	c0,13.288,10.872,24.161,24.161,24.161h161.276c13.288,0,24.159-10.873,24.159-24.161L405.065,244.335L405.065,244.335z
	 M380.905,527.02H220.233c-3.624,0-6.041-2.415-6.041-6.04V244.335c0-10.873,4.228-21.745,12.08-29.597l52.551-51.947v-41.073
	h44.095v41.073l52.55,51.947c7.852,7.852,12.079,18.725,12.079,29.597v276.645C386.945,524.604,384.527,527.02,380.905,527.02z"/>
<g>
	<path d="M351.308,273.932H249.831c-6.645,0-12.081,5.437-12.081,12.081v114.765c0,6.643,5.436,12.08,12.081,12.08h101.477
		c6.643,0,12.081-5.436,12.081-12.08V286.012C363.389,279.368,357.95,273.932,351.308,273.932z M332.582,355.476h-19.934v19.932
		c0,6.645-5.435,12.082-12.684,12.082c-6.645,0-12.08-5.437-12.08-12.082v-19.932h-19.934c-6.645,0-12.684-5.437-12.684-12.685
		c0-6.645,5.436-12.684,12.684-12.684h19.934v-19.933c0-6.645,5.435-12.685,12.08-12.685s12.684,5.436,12.684,12.685v20.537h19.934
		c6.645,0,12.686,5.435,12.686,12.685C345.268,350.04,339.831,355.476,332.582,355.476z"/>
</g>
</svg>
