<?xml version="1.0" encoding="utf-8"?>
<!-- Generator: Adobe Illustrator 16.0.0, SVG Export Plug-In . SVG Version: 6.00 Build 0)  -->
<!DOCTYPE svg PUBLIC "-//W3C//DTD SVG 1.1//EN" "http://www.w3.org/Graphics/SVG/1.1/DTD/svg11.dtd">
<svg version="1.1" id="Layer_1" xmlns="http://www.w3.org/2000/svg" xmlns:xlink="http://www.w3.org/1999/xlink" x="0px" y="0px"
	 width="500px" height="500px" viewBox="56 146 500 500" enable-background="new 56 146 500 500" xml:space="preserve">
<g>
	<path d="M307.389,528.079c-73.974,0-134.579-60.605-134.579-134.579c0-73.973,60.604-134.578,134.579-134.578
		c73.972,0,134.578,60.605,134.578,134.578C441.074,467.474,381.36,528.079,307.389,528.079z M307.389,276.748
		c-64.17,0-116.754,52.583-116.754,116.752s52.584,116.753,116.754,116.753c64.169,0,115.861-52.583,115.861-116.753
		S371.558,276.748,307.389,276.748z"/>
</g>
<g>
	<g>
		<path d="M307.389,235.75c-5.349,0-8.913-3.564-8.913-8.912v-60.605c0-5.347,3.564-8.913,8.913-8.913
			c5.346,0,8.911,3.565,8.911,8.913v60.605C316.3,232.185,311.844,235.75,307.389,235.75z"/>
	</g>
	<g>
		<path d="M307.389,629.68c-5.349,0-8.913-3.563-8.913-8.912v-60.604c0-5.349,3.564-8.914,8.913-8.914
			c5.346,0,8.911,3.565,8.911,8.914v60.604C316.3,625.225,311.844,629.68,307.389,629.68z"/>
	</g>
</g>
<g>
	<g>
		<path d="M425.032,284.769c-2.674,0-4.455-0.892-6.238-2.674c-3.565-3.565-3.565-8.913,0-12.478l42.779-42.78
			c3.564-3.565,8.912-3.565,12.478,0c3.565,3.565,3.565,8.912,0,12.477l-42.779,42.78
			C429.489,283.877,426.815,284.769,425.032,284.769z"/>
	</g>
	<g>
		<path d="M146.073,562.837c-2.674,0-4.457-0.892-6.239-2.673c-3.565-3.566-3.565-8.914,0-12.479l42.779-42.779
			c3.565-3.566,8.913-3.566,12.478,0c3.565,3.564,3.565,8.912,0,12.478l-42.78,42.78
			C151.42,561.945,148.747,562.837,146.073,562.837z"/>
	</g>
</g>
<g>
	<g>
		<path d="M534.656,402.413h-60.605c-5.347,0-8.913-3.565-8.913-8.913c0-5.347,3.566-8.913,8.913-8.913h60.605
			c5.348,0,8.912,3.565,8.912,8.913C543.568,398.848,539.111,402.413,534.656,402.413z"/>
	</g>
	<g>
		<path d="M140.725,402.413H80.121c-5.347,0-8.913-3.565-8.913-8.913c0-5.347,3.565-8.913,8.913-8.913h60.604
			c5.348,0,8.912,3.565,8.912,8.913C149.637,398.848,145.181,402.413,140.725,402.413z"/>
	</g>
</g>
<g>
	<g>
		<path d="M467.812,562.837c-2.675,0-4.456-0.892-6.239-2.673l-42.779-42.78c-3.565-3.565-3.565-8.913,0-12.478
			c3.564-3.566,8.912-3.566,12.478,0l42.779,42.779c3.565,3.564,3.565,8.912,0,12.479
			C472.269,561.945,469.594,562.837,467.812,562.837z"/>
	</g>
	<g>
		<path d="M189.744,284.769c-2.674,0-4.457-0.892-6.239-2.674l-42.779-42.78c-3.565-3.565-3.565-8.912,0-12.477
			c3.565-3.565,8.912-3.565,12.478,0l42.78,42.78c3.564,3.565,3.564,8.912,0,12.478C194.2,283.877,191.526,284.769,189.744,284.769z
			"/>
	</g>
</g>
<text transform="matrix(1 0 0 1 0 717.3008)" font-family="'HelveticaNeue-Bold'" font-size="30.6">Created by Aysegul Avcu</text>
<text transform="matrix(1 0 0 1 0 747.8984)" font-family="'HelveticaNeue-Bold'" font-size="30.6">from the Noun Project</text>
</svg>
