<?xml version="1.0" encoding="utf-8"?>
<!-- Generator: Adobe Illustrator 16.0.0, SVG Export Plug-In . SVG Version: 6.00 Build 0)  -->
<!DOCTYPE svg PUBLIC "-//W3C//DTD SVG 1.1//EN" "http://www.w3.org/Graphics/SVG/1.1/DTD/svg11.dtd">
<svg version="1.1" id="Layer_1" xmlns="http://www.w3.org/2000/svg" xmlns:xlink="http://www.w3.org/1999/xlink" x="0px" y="0px"
	 width="500px" height="500px" viewBox="56 146 500 500" enable-background="new 56 146 500 500" xml:space="preserve">
<g>
	<path d="M495.017,199.564c-18.19-18.204-42.062-27.306-65.934-27.306c-23.844,0-47.715,9.095-65.905,27.306l-261.055,261.04
		c-36.408,36.409-36.408,95.432,0,131.84c18.218,18.19,42.062,27.298,65.933,27.298c23.871,0,47.715-9.108,65.933-27.298
		l261.026-261.04C531.424,294.995,531.424,235.965,495.017,199.564z M220.797,579.252c-14.094,14.093-32.83,21.85-52.741,21.85
		s-38.648-7.757-52.741-21.85c-14.093-14.08-21.851-32.803-21.851-52.741c0-19.912,7.757-38.647,21.851-52.728l124.82-124.819
		c13.684,20.423,29.552,39.835,47.605,57.876c18.027,18.053,37.447,33.909,57.876,47.592L220.797,579.252z M481.824,318.218
		L359.054,440.995c-20.812-13.63-40.231-29.444-58.147-47.333c-17.891-17.902-33.705-37.336-47.333-58.135L376.37,212.743
		c14.064-14.087,32.802-21.844,52.714-21.844c19.938,0,38.675,7.756,52.741,21.844c14.092,14.087,21.85,32.815,21.85,52.741
		C503.674,285.401,495.917,304.131,481.824,318.218z"/>
	<path d="M429.083,209.547c-14.312,0-28.624,5.456-39.549,16.38l0,0l-105.48,105.476c-3.633,3.639-3.633,9.545,0,13.184
		c3.66,3.639,9.559,3.639,13.191,0l105.481-105.474c7.046-7.04,16.414-10.918,26.356-10.918c9.969,0,19.336,3.879,26.385,10.918
		c3.632,3.639,9.532,3.639,13.192,0c3.633-3.64,3.633-9.54,0-13.186C457.734,215.009,443.396,209.547,429.083,209.547z"/>
</g>
</svg>
