<?xml version="1.0" encoding="utf-8"?>
<!-- Generator: Adobe Illustrator 16.0.0, SVG Export Plug-In . SVG Version: 6.00 Build 0)  -->
<!DOCTYPE svg PUBLIC "-//W3C//DTD SVG 1.1//EN" "http://www.w3.org/Graphics/SVG/1.1/DTD/svg11.dtd">
<svg version="1.1" id="Layer_1" xmlns="http://www.w3.org/2000/svg" xmlns:xlink="http://www.w3.org/1999/xlink" x="0px" y="0px"
	 width="500px" height="500px" viewBox="0 0 500 500" enable-background="new 0 0 500 500" xml:space="preserve">
<path d="M250.688,102.271c-137.442,0-245.433,56.723-245.433,129.808v116.17c0,72.54,107.991,129.808,245.433,129.808
	c137.443,0,245.434-56.721,245.434-129.808v-116.17C496.121,159.54,388.131,102.271,250.688,102.271z M94.156,161.176
	l296.155,148.351c-38.178,15.27-87.264,24.542-140.167,24.542c-118.355,0-218.165-46.905-218.165-102.536
	C32.525,204.809,56.523,179.719,94.156,161.176z M468.85,347.705c0,55.631-99.809,102.536-218.162,102.536
	c-118.354,0-218.163-46.905-218.163-102.536v-55.633c40.36,41.451,122.172,69.267,218.163,69.267
	c95.99,0,177.803-27.815,218.162-69.267V347.705L468.85,347.705z M407.221,302.436l-296.703-148.35
	c38.178-15.271,87.265-24.544,140.17-24.544c118.354,0,218.162,46.905,218.162,102.537
	C468.85,258.803,444.854,283.893,407.221,302.436z"/>
</svg>
